<svg width="92" height="95" viewBox="0 0 92 95" fill="none" xmlns="http://www.w3.org/2000/svg">
<g filter="url(#filter0_d)">
<path d="M6 22C6 10.9543 14.9543 2 26 2H78C82.4183 2 86 5.58172 86 10V65C86 76.0457 77.0457 85 66 85H14C9.58172 85 6 81.4183 6 77V22Z" fill="#A0CFCB"/>
<path d="M41.7772 73H39.9712L39.7192 68.954C39.6352 67.5073 39.5932 66.3593 39.5932 65.51V65.006L37.8292 71.95H36.0792L34.2032 64.992C34.2219 65.608 34.2312 66.0747 34.2312 66.392C34.2312 67.2413 34.2032 68.114 34.1472 69.01L33.9092 73H32.1172L32.8872 63.326H35.2672L36.9892 70.102L38.6132 63.326H41.0212L41.7772 73ZM49.5364 71.04C49.5364 71.3293 49.5784 71.544 49.6624 71.684C49.7557 71.8147 49.9004 71.9173 50.0964 71.992L49.7184 73.182C49.2984 73.1447 48.953 73.042 48.6824 72.874C48.421 72.706 48.2204 72.4493 48.0804 72.104C47.8284 72.4773 47.511 72.7573 47.1284 72.944C46.755 73.1213 46.335 73.21 45.8684 73.21C45.131 73.21 44.5477 73 44.1184 72.58C43.689 72.16 43.4744 71.6093 43.4744 70.928C43.4744 70.1253 43.7637 69.514 44.3424 69.094C44.9304 68.6647 45.7657 68.45 46.8484 68.45H47.7724V68.03C47.7724 67.554 47.6604 67.2227 47.4364 67.036C47.2217 66.84 46.8717 66.742 46.3864 66.742C45.845 66.742 45.1917 66.8727 44.4264 67.134L44.0064 65.916C44.9304 65.5613 45.8264 65.384 46.6944 65.384C48.589 65.384 49.5364 66.2333 49.5364 67.932V71.04ZM46.3444 71.908C46.951 71.908 47.427 71.6047 47.7724 70.998V69.5H47.0304C45.873 69.5 45.2944 69.9293 45.2944 70.788C45.2944 71.1427 45.383 71.418 45.5604 71.614C45.7377 71.81 45.999 71.908 46.3444 71.908ZM56.101 65.384C57.0343 65.384 57.725 65.7247 58.173 66.406C58.621 67.0873 58.845 68.044 58.845 69.276C58.845 70.0413 58.7283 70.7227 58.495 71.32C58.271 71.908 57.935 72.37 57.487 72.706C57.0483 73.042 56.5256 73.21 55.919 73.21C55.135 73.21 54.5143 72.9393 54.057 72.398V75.856L52.265 76.052V65.594H53.833L53.931 66.504C54.2203 66.1307 54.5516 65.8507 54.925 65.664C55.2983 65.4773 55.6903 65.384 56.101 65.384ZM55.415 71.838C56.451 71.838 56.969 70.9887 56.969 69.29C56.969 68.3847 56.8523 67.7313 56.619 67.33C56.3856 66.9287 56.0356 66.728 55.569 66.728C55.2703 66.728 54.9903 66.8213 54.729 67.008C54.4676 67.1853 54.2436 67.428 54.057 67.736V71.068C54.4023 71.5813 54.855 71.838 55.415 71.838Z" fill="#FBFAF1"/>
</g>
<path d="M59.2991 42.5705L51.7764 38.81C50.443 40.6818 49.0081 42.4794 47.4782 44.1944C47.2307 44.4702 46.9279 44.6908 46.5895 44.8418C46.2511 44.9928 45.8847 45.0708 45.5142 45.0708C45.1436 45.0708 44.7772 44.9928 44.4388 44.8418C44.1004 44.6908 43.7976 44.4702 43.5501 44.1944C42.0203 42.4793 40.5854 40.6817 39.2519 38.8098L31.7293 42.5703C31.5101 42.6799 31.3258 42.8484 31.197 43.0568C31.0682 43.2652 31 43.5054 31 43.7504C31 43.9955 31.0682 44.2356 31.197 44.4441C31.3258 44.6525 31.5101 44.8209 31.7293 44.9305L44.924 51.5279C45.1073 51.6196 45.3093 51.6673 45.5142 51.6673C45.719 51.6673 45.9211 51.6196 46.1043 51.5279L59.2991 44.9305C59.5182 44.8209 59.7025 44.6525 59.8313 44.4441C59.9601 44.2356 60.0283 43.9955 60.0283 43.7504C60.0283 43.5054 59.9601 43.2652 59.8313 43.0568C59.7025 42.8484 59.5182 42.6799 59.2991 42.5703V42.5705Z" fill="#FBFAF1"/>
<path d="M45.5142 20C43.0654 20.0028 40.7177 20.9768 38.9862 22.7083C37.2546 24.4399 36.2806 26.7876 36.2778 29.2363C36.2778 33.9771 43.6872 42.3709 44.5322 43.3124C44.6559 43.4503 44.8073 43.5606 44.9765 43.6361C45.1457 43.7116 45.3289 43.7506 45.5142 43.7506C45.6995 43.7506 45.8827 43.7116 46.0519 43.6361C46.2211 43.5606 46.3725 43.4503 46.4962 43.3124C47.3412 42.3709 54.7505 33.9771 54.7505 29.2363C54.7477 26.7876 53.7737 24.4399 52.0422 22.7083C50.3106 20.9768 47.963 20.0028 45.5142 20V20ZM45.5142 34.5143C44.4703 34.5143 43.4499 34.2047 42.5819 33.6248C41.714 33.0448 41.0375 32.2205 40.638 31.2561C40.2386 30.2917 40.134 29.2305 40.3377 28.2067C40.5413 27.1829 41.044 26.2424 41.7821 25.5043C42.5203 24.7662 43.4607 24.2635 44.4845 24.0598C45.5083 23.8562 46.5695 23.9607 47.534 24.3602C48.4984 24.7597 49.3227 25.4361 49.9026 26.3041C50.4825 27.172 50.7921 28.1925 50.7921 29.2363C50.7905 30.6357 50.234 31.9772 49.2445 32.9667C48.255 33.9561 46.9135 34.5127 45.5142 34.5143V34.5143Z" fill="#FBFAF1"/>
<defs>
<filter id="filter0_d" x="0" y="0" width="92" height="95" filterUnits="userSpaceOnUse" color-interpolation-filters="sRGB">
<feFlood flood-opacity="0" result="BackgroundImageFix"/>
<feColorMatrix in="SourceAlpha" type="matrix" values="0 0 0 0 0 0 0 0 0 0 0 0 0 0 0 0 0 0 127 0"/>
<feOffset dy="4"/>
<feGaussianBlur stdDeviation="3"/>
<feColorMatrix type="matrix" values="0 0 0 0 0 0 0 0 0 0 0 0 0 0 0 0 0 0 0.05 0"/>
<feBlend mode="normal" in2="BackgroundImageFix" result="effect1_dropShadow"/>
<feBlend mode="normal" in="SourceGraphic" in2="effect1_dropShadow" result="shape"/>
</filter>
</defs>
</svg>
