<svg width="80" height="83" viewBox="0 0 80 83" fill="none" xmlns="http://www.w3.org/2000/svg">
<path d="M0 20C0 8.95431 8.95431 0 20 0H72C76.4183 0 80 3.58172 80 8V63C80 74.0457 71.0457 83 60 83H8C3.58172 83 0 79.4183 0 75V20Z" fill="#A0CFCB"/>
<path d="M12.0984 61.326V71H10.2504V61.326H12.0984ZM18.8177 63.384C19.4803 63.384 19.9937 63.5847 20.3577 63.986C20.731 64.378 20.9177 64.9287 20.9177 65.638V71H19.1257V65.918C19.1257 65.4793 19.0463 65.1713 18.8877 64.994C18.7383 64.8167 18.5143 64.728 18.2157 64.728C17.9077 64.728 17.6277 64.826 17.3757 65.022C17.133 65.2087 16.895 65.484 16.6617 65.848V71H14.8697V63.594H16.4237L16.5637 64.56C17.1703 63.776 17.9217 63.384 18.8177 63.384ZM27.8064 70.65C27.5451 70.8367 27.2511 70.9767 26.9244 71.07C26.6071 71.1633 26.2804 71.21 25.9444 71.21C25.2164 71.2007 24.6611 70.9953 24.2784 70.594C23.9051 70.1833 23.7184 69.5813 23.7184 68.788V64.882H22.5564V63.594H23.7184V61.956L25.5104 61.746V63.594H27.2324L27.0504 64.882H25.5104V68.746C25.5104 69.11 25.5711 69.3713 25.6924 69.53C25.8231 69.6887 26.0238 69.768 26.2944 69.768C26.5651 69.768 26.8591 69.6793 27.1764 69.502L27.8064 70.65ZM35.218 67.122C35.218 67.2153 35.204 67.458 35.176 67.85H30.528C30.584 68.5687 30.7707 69.082 31.088 69.39C31.4054 69.698 31.8254 69.852 32.348 69.852C32.6747 69.852 32.9827 69.8007 33.272 69.698C33.5614 69.586 33.8694 69.418 34.196 69.194L34.938 70.216C34.1167 70.8787 33.202 71.21 32.194 71.21C31.0647 71.21 30.192 70.8647 29.576 70.174C28.9694 69.4833 28.666 68.5407 28.666 67.346C28.666 66.59 28.7967 65.9133 29.058 65.316C29.3194 64.7093 29.6974 64.238 30.192 63.902C30.6867 63.5567 31.2747 63.384 31.956 63.384C32.992 63.384 33.7947 63.7153 34.364 64.378C34.9334 65.0313 35.218 65.946 35.218 67.122ZM33.44 66.604C33.44 65.3067 32.9594 64.658 31.998 64.658C31.5594 64.658 31.214 64.8213 30.962 65.148C30.7194 65.4653 30.5747 65.9787 30.528 66.688H33.44V66.604ZM41.0396 63.398C41.3103 63.398 41.5576 63.4307 41.7816 63.496L41.4736 65.232C41.2496 65.176 41.0303 65.148 40.8156 65.148C40.377 65.148 40.0316 65.3067 39.7796 65.624C39.5276 65.932 39.327 66.408 39.1776 67.052V71H37.3856V63.594H38.9396L39.1076 65.05C39.285 64.518 39.5416 64.112 39.8776 63.832C40.2136 63.5427 40.601 63.398 41.0396 63.398ZM49.1076 67.122C49.1076 67.2153 49.0936 67.458 49.0656 67.85H44.4176C44.4736 68.5687 44.6602 69.082 44.9776 69.39C45.2949 69.698 45.7149 69.852 46.2376 69.852C46.5642 69.852 46.8722 69.8007 47.1616 69.698C47.4509 69.586 47.7589 69.418 48.0856 69.194L48.8276 70.216C48.0062 70.8787 47.0916 71.21 46.0836 71.21C44.9542 71.21 44.0816 70.8647 43.4656 70.174C42.8589 69.4833 42.5556 68.5407 42.5556 67.346C42.5556 66.59 42.6862 65.9133 42.9476 65.316C43.2089 64.7093 43.5869 64.238 44.0816 63.902C44.5762 63.5567 45.1642 63.384 45.8456 63.384C46.8816 63.384 47.6842 63.7153 48.2536 64.378C48.8229 65.0313 49.1076 65.946 49.1076 67.122ZM47.3296 66.604C47.3296 65.3067 46.8489 64.658 45.8876 64.658C45.4489 64.658 45.1036 64.8213 44.8516 65.148C44.6089 65.4653 44.4642 65.9787 44.4176 66.688H47.3296V66.604ZM53.6132 63.384C54.6118 63.384 55.4892 63.678 56.2452 64.266L55.5452 65.316C54.9105 64.9147 54.2898 64.714 53.6832 64.714C53.3285 64.714 53.0532 64.784 52.8572 64.924C52.6612 65.0547 52.5632 65.232 52.5632 65.456C52.5632 65.624 52.6052 65.764 52.6892 65.876C52.7732 65.988 52.9225 66.0953 53.1372 66.198C53.3612 66.2913 53.6878 66.3987 54.1172 66.52C54.9198 66.7347 55.5125 67.0193 55.8952 67.374C56.2872 67.7287 56.4832 68.2233 56.4832 68.858C56.4832 69.5953 56.1845 70.174 55.5872 70.594C54.9898 71.0047 54.2478 71.21 53.3612 71.21C52.7545 71.21 52.1992 71.1167 51.6952 70.93C51.2005 70.7433 50.7712 70.4867 50.4072 70.16L51.3032 69.152C51.9472 69.6373 52.6192 69.88 53.3192 69.88C53.7205 69.88 54.0378 69.8007 54.2712 69.642C54.5138 69.4833 54.6352 69.264 54.6352 68.984C54.6352 68.7693 54.5885 68.6013 54.4952 68.48C54.4112 68.3493 54.2525 68.2373 54.0192 68.144C53.7952 68.0413 53.4405 67.92 52.9552 67.78C52.1992 67.5747 51.6438 67.29 51.2892 66.926C50.9345 66.5527 50.7572 66.0907 50.7572 65.54C50.7572 65.1293 50.8738 64.7607 51.1072 64.434C51.3498 64.1073 51.6858 63.8507 52.1152 63.664C52.5538 63.4773 53.0532 63.384 53.6132 63.384ZM62.7354 70.65C62.474 70.8367 62.18 70.9767 61.8534 71.07C61.536 71.1633 61.2094 71.21 60.8734 71.21C60.1454 71.2007 59.59 70.9953 59.2074 70.594C58.834 70.1833 58.6474 69.5813 58.6474 68.788V64.882H57.4854V63.594H58.6474V61.956L60.4394 61.746V63.594H62.1614L61.9794 64.882H60.4394V68.746C60.4394 69.11 60.5 69.3713 60.6214 69.53C60.752 69.6887 60.9527 69.768 61.2234 69.768C61.494 69.768 61.788 69.6793 62.1054 69.502L62.7354 70.65ZM66.6413 63.384C67.64 63.384 68.5173 63.678 69.2733 64.266L68.5733 65.316C67.9387 64.9147 67.318 64.714 66.7113 64.714C66.3567 64.714 66.0813 64.784 65.8853 64.924C65.6893 65.0547 65.5913 65.232 65.5913 65.456C65.5913 65.624 65.6333 65.764 65.7173 65.876C65.8013 65.988 65.9507 66.0953 66.1653 66.198C66.3893 66.2913 66.716 66.3987 67.1453 66.52C67.948 66.7347 68.5407 67.0193 68.9233 67.374C69.3153 67.7287 69.5113 68.2233 69.5113 68.858C69.5113 69.5953 69.2127 70.174 68.6153 70.594C68.018 71.0047 67.276 71.21 66.3893 71.21C65.7827 71.21 65.2273 71.1167 64.7233 70.93C64.2287 70.7433 63.7993 70.4867 63.4353 70.16L64.3313 69.152C64.9753 69.6373 65.6473 69.88 66.3473 69.88C66.7487 69.88 67.066 69.8007 67.2993 69.642C67.542 69.4833 67.6633 69.264 67.6633 68.984C67.6633 68.7693 67.6167 68.6013 67.5233 68.48C67.4393 68.3493 67.2807 68.2373 67.0473 68.144C66.8233 68.0413 66.4687 67.92 65.9833 67.78C65.2273 67.5747 64.672 67.29 64.3173 66.926C63.9627 66.5527 63.7853 66.0907 63.7853 65.54C63.7853 65.1293 63.902 64.7607 64.1353 64.434C64.378 64.1073 64.714 63.8507 65.1433 63.664C65.582 63.4773 66.0813 63.384 66.6413 63.384Z" fill="#FBFAF1"/>
<path d="M35.3068 19H25.3283C24.0444 19 23 20.0444 23 21.3283V27.3154C23 28.5993 24.0444 29.6437 25.3283 29.6437H35.3068C36.5907 29.6437 37.6351 28.5993 37.6351 27.3154V21.3283C37.6351 20.0444 36.5907 19 35.3068 19Z" fill="#FBFAF1"/>
<path d="M35.3068 32.3047H25.3283C24.0444 32.3047 23 33.3491 23 34.633V48.6029C23 49.8868 24.0444 50.9312 25.3283 50.9312H35.3068C36.5907 50.9312 37.6351 49.8868 37.6351 48.6029V34.633C37.6351 33.3491 36.5907 32.3047 35.3068 32.3047Z" fill="#FBFAF1"/>
<path d="M52.6029 40.2874H42.6244C41.3405 40.2874 40.2961 41.3318 40.2961 42.6157V48.6028C40.2961 49.8867 41.3405 50.9311 42.6244 50.9311H52.6029C53.8868 50.9311 54.9312 49.8867 54.9312 48.6028V42.6157C54.9312 41.3318 53.8868 40.2874 52.6029 40.2874Z" fill="#FBFAF1"/>
<path d="M52.6029 19H42.6244C41.3405 19 40.2961 20.0444 40.2961 21.3283V35.2982C40.2961 36.5821 41.3405 37.6265 42.6244 37.6265H52.6029C53.8868 37.6265 54.9312 36.5821 54.9312 35.2982V21.3283C54.9312 20.0444 53.8868 19 52.6029 19Z" fill="#FBFAF1"/>
</svg>
