<svg width="80" height="83" viewBox="0 0 80 83" fill="none" xmlns="http://www.w3.org/2000/svg">
<path d="M0 20C0 8.95431 8.95431 0 20 0H72C76.4183 0 80 3.58172 80 8V63C80 74.0457 71.0457 83 60 83H8C3.58172 83 0 79.4183 0 75V20Z" fill="#A0CFCB"/>
<path d="M21.4728 61.326C22.7141 61.326 23.6755 61.5827 24.3568 62.096C25.0475 62.6093 25.3928 63.3793 25.3928 64.406C25.3928 65.4793 25.0475 66.2867 24.3568 66.828C23.6661 67.36 22.7468 67.626 21.5988 67.626H20.4648V71H18.6168V61.326H21.4728ZM21.4588 66.24C22.1215 66.24 22.6208 66.1047 22.9568 65.834C23.2928 65.554 23.4608 65.078 23.4608 64.406C23.4608 63.258 22.7935 62.684 21.4588 62.684H20.4648V66.24H21.4588ZM30.7729 63.398C31.0435 63.398 31.2909 63.4307 31.5149 63.496L31.2069 65.232C30.9829 65.176 30.7635 65.148 30.5489 65.148C30.1102 65.148 29.7649 65.3067 29.5129 65.624C29.2609 65.932 29.0602 66.408 28.9109 67.052V71H27.1189V63.594H28.6729L28.8409 65.05C29.0182 64.518 29.2749 64.112 29.6109 63.832C29.9469 63.5427 30.3342 63.398 30.7729 63.398ZM35.7888 63.384C36.8808 63.384 37.7301 63.734 38.3368 64.434C38.9528 65.1247 39.2608 66.0767 39.2608 67.29C39.2608 68.0647 39.1208 68.7507 38.8408 69.348C38.5608 69.936 38.1595 70.3933 37.6368 70.72C37.1141 71.0467 36.4935 71.21 35.7748 71.21C34.6828 71.21 33.8288 70.8647 33.2128 70.174C32.5968 69.474 32.2888 68.5127 32.2888 67.29C32.2888 66.5153 32.4288 65.834 32.7088 65.246C32.9888 64.658 33.3901 64.2007 33.9128 63.874C34.4448 63.5473 35.0701 63.384 35.7888 63.384ZM35.7888 64.742C34.7155 64.742 34.1788 65.5913 34.1788 67.29C34.1788 68.1673 34.3095 68.816 34.5708 69.236C34.8415 69.6467 35.2428 69.852 35.7748 69.852C36.3068 69.852 36.7035 69.642 36.9648 69.222C37.2355 68.802 37.3708 68.158 37.3708 67.29C37.3708 66.422 37.2355 65.7827 36.9648 65.372C36.7035 64.952 36.3115 64.742 35.7888 64.742ZM44.5106 60.43C45.2946 60.43 46.0506 60.6073 46.7786 60.962L46.2326 62.152C45.7379 61.9187 45.2152 61.802 44.6646 61.802C44.2072 61.802 43.8899 61.886 43.7126 62.054C43.5446 62.2127 43.4606 62.474 43.4606 62.838V63.594H47.5766V71H45.7846V64.882H43.4606V71H41.6686V64.882H40.5066V63.594H41.6686V62.81C41.6686 62.0913 41.9019 61.5173 42.3686 61.088C42.8352 60.6493 43.5492 60.43 44.5106 60.43ZM52.041 71.21C51.4717 71.21 51.0237 71.0467 50.697 70.72C50.3797 70.384 50.221 69.9127 50.221 69.306V60.626L52.013 60.43V69.25C52.013 69.5953 52.153 69.768 52.433 69.768C52.573 69.768 52.713 69.7447 52.853 69.698L53.231 70.958C52.8577 71.126 52.461 71.21 52.041 71.21ZM60.9876 67.122C60.9876 67.2153 60.9736 67.458 60.9456 67.85H56.2976C56.3536 68.5687 56.5403 69.082 56.8576 69.39C57.1749 69.698 57.5949 69.852 58.1176 69.852C58.4443 69.852 58.7523 69.8007 59.0416 69.698C59.3309 69.586 59.6389 69.418 59.9656 69.194L60.7076 70.216C59.8863 70.8787 58.9716 71.21 57.9636 71.21C56.8343 71.21 55.9616 70.8647 55.3456 70.174C54.7389 69.4833 54.4356 68.5407 54.4356 67.346C54.4356 66.59 54.5663 65.9133 54.8276 65.316C55.0889 64.7093 55.4669 64.238 55.9616 63.902C56.4563 63.5567 57.0443 63.384 57.7256 63.384C58.7616 63.384 59.5643 63.7153 60.1336 64.378C60.7029 65.0313 60.9876 65.946 60.9876 67.122ZM59.2096 66.604C59.2096 65.3067 58.7289 64.658 57.7676 64.658C57.3289 64.658 56.9836 64.8213 56.7316 65.148C56.4889 65.4653 56.3443 65.9787 56.2976 66.688H59.2096V66.604Z" fill="#FBFAF1"/>
<path d="M39.5 17C31.4927 17 25 23.4917 25 31.5C25 39.5083 31.4921 46 39.5 46C47.5086 46 54 39.5083 54 31.5C54 23.4917 47.5086 17 39.5 17ZM39.5 21.3357C42.1496 21.3357 44.2966 23.4834 44.2966 26.1318C44.2966 28.7809 42.1496 30.928 39.5 30.928C36.8517 30.928 34.7047 28.7809 34.7047 26.1318C34.7047 23.4834 36.8517 21.3357 39.5 21.3357ZM39.4968 42.2089C36.8543 42.2089 34.434 41.2465 32.5672 39.6535C32.1124 39.2656 31.85 38.6968 31.85 38.1C31.85 35.414 34.0238 33.2643 36.7103 33.2643H42.291C44.9781 33.2643 47.1436 35.414 47.1436 38.1C47.1436 38.6975 46.8825 39.265 46.4271 39.6529C44.5609 41.2465 42.14 42.2089 39.4968 42.2089Z" fill="#FBFAF1"/>
</svg>
