<svg width="80" height="83" viewBox="0 0 80 83" fill="none" xmlns="http://www.w3.org/2000/svg">
<path d="M0 20C0 8.95431 8.95431 0 20 0H72C76.4183 0 80 3.58172 80 8V63C80 74.0457 71.0457 83 60 83H8C3.58172 83 0 79.4183 0 75V20Z" fill="#A0CFCB"/>
<path d="M23.1457 60.116C21.2417 60.116 19.8557 61.18 19.8557 62.79C19.8557 64.26 20.7377 65.072 22.7677 65.702C24.2797 66.164 24.6857 66.528 24.6857 67.34C24.6857 68.278 23.9437 68.782 22.9077 68.782C21.8997 68.782 21.1157 68.418 20.4437 67.788L19.4637 68.88C20.2617 69.664 21.4097 70.21 22.9497 70.21C25.2597 70.21 26.6177 68.978 26.6177 67.242C26.6177 65.422 25.4417 64.722 23.7477 64.19C22.1377 63.686 21.7597 63.378 21.7597 62.678C21.7597 61.922 22.3897 61.53 23.2577 61.53C24.0557 61.53 24.7277 61.782 25.3997 62.37L26.3377 61.306C25.4977 60.536 24.5597 60.116 23.1457 60.116ZM34.1717 64.932C34.1717 63.294 33.3037 62.384 31.3297 62.384C30.4897 62.384 29.5517 62.566 28.6417 62.916L29.0617 64.134C29.8037 63.882 30.5177 63.742 31.0217 63.742C31.9737 63.742 32.4077 64.064 32.4077 65.03V65.45H31.4837C29.3277 65.45 28.1097 66.318 28.1097 67.928C28.1097 69.272 29.0197 70.21 30.5037 70.21C31.3857 70.21 32.1977 69.888 32.7157 69.104C33.0097 69.818 33.5417 70.112 34.3537 70.182L34.7317 68.992C34.3677 68.852 34.1717 68.642 34.1717 68.04V64.932ZM30.9797 68.908C30.2937 68.908 29.9297 68.502 29.9297 67.788C29.9297 66.92 30.5037 66.5 31.6657 66.5H32.4077V67.998C32.0717 68.586 31.6097 68.908 30.9797 68.908ZM40.2509 70L42.6589 62.594H40.8109L39.1869 68.558L37.6049 62.594H35.6589L38.1089 70H40.2509ZM50.2628 66.122C50.2628 63.784 49.0728 62.384 47.0008 62.384C44.9008 62.384 43.7108 64.092 43.7108 66.346C43.7108 68.684 44.9428 70.21 47.2388 70.21C48.3588 70.21 49.2548 69.804 49.9828 69.216L49.2408 68.194C48.5968 68.642 48.0508 68.852 47.3928 68.852C46.4128 68.852 45.6988 68.362 45.5728 66.85H50.2208C50.2348 66.654 50.2628 66.36 50.2628 66.122ZM48.4848 65.688H45.5728C45.6848 64.218 46.2028 63.658 47.0428 63.658C48.0508 63.658 48.4848 64.386 48.4848 65.604V65.688ZM58.7014 59.626L56.9094 59.43V63.182C56.4474 62.72 55.8314 62.384 55.0754 62.384C53.1994 62.384 52.0654 64.022 52.0654 66.304C52.0654 68.656 53.0314 70.21 54.8794 70.21C55.8314 70.21 56.5454 69.734 56.9934 69.062L57.1194 70H58.7014V59.626ZM55.3834 68.852C54.5014 68.852 53.9554 68.194 53.9554 66.29C53.9554 64.512 54.5714 63.728 55.5094 63.728C56.1114 63.728 56.5174 64.036 56.9094 64.512V67.9C56.4894 68.53 56.0414 68.852 55.3834 68.852Z" fill="#FBFAF1"/>
<path d="M23.1457 61.116C23.827 61.116 24.4197 61.214 24.9237 61.41C25.4277 61.606 25.899 61.9047 26.3377 62.306L25.4277 63.356C25.0824 63.0667 24.7324 62.8567 24.3777 62.726C24.0324 62.5953 23.659 62.53 23.2577 62.53C22.8097 62.53 22.4457 62.6327 22.1657 62.838C21.895 63.034 21.7597 63.314 21.7597 63.678C21.7597 63.9207 21.811 64.1213 21.9137 64.28C22.0257 64.4387 22.2217 64.588 22.5017 64.728C22.7817 64.868 23.197 65.022 23.7477 65.19C24.6997 65.4887 25.4137 65.862 25.8897 66.31C26.375 66.7487 26.6177 67.3927 26.6177 68.242C26.6177 68.8207 26.4684 69.334 26.1697 69.782C25.8804 70.23 25.4604 70.58 24.9097 70.832C24.359 71.084 23.7057 71.21 22.9497 71.21C22.2124 71.21 21.5497 71.0933 20.9617 70.86C20.383 70.6173 19.8837 70.2907 19.4637 69.88L20.4157 68.816C20.789 69.1333 21.1764 69.376 21.5777 69.544C21.979 69.7027 22.4224 69.782 22.9077 69.782C23.4397 69.782 23.869 69.656 24.1957 69.404C24.5224 69.152 24.6857 68.7973 24.6857 68.34C24.6857 68.06 24.6297 67.8313 24.5177 67.654C24.4057 67.4673 24.2144 67.304 23.9437 67.164C23.673 67.0147 23.281 66.8607 22.7677 66.702C21.741 66.3847 20.999 66.002 20.5417 65.554C20.0844 65.106 19.8557 64.518 19.8557 63.79C19.8557 63.258 19.9957 62.7913 20.2757 62.39C20.5557 61.9887 20.943 61.676 21.4377 61.452C21.9417 61.228 22.511 61.116 23.1457 61.116ZM34.1717 69.04C34.1717 69.3293 34.2137 69.544 34.2977 69.684C34.391 69.8147 34.5357 69.9173 34.7317 69.992L34.3537 71.182C33.9337 71.1447 33.5884 71.042 33.3177 70.874C33.0564 70.706 32.8557 70.4493 32.7157 70.104C32.4637 70.4773 32.1464 70.7573 31.7637 70.944C31.3904 71.1213 30.9704 71.21 30.5037 71.21C29.7664 71.21 29.183 71 28.7537 70.58C28.3244 70.16 28.1097 69.6093 28.1097 68.928C28.1097 68.1253 28.399 67.514 28.9777 67.094C29.5657 66.6647 30.401 66.45 31.4837 66.45H32.4077V66.03C32.4077 65.554 32.2957 65.2227 32.0717 65.036C31.857 64.84 31.507 64.742 31.0217 64.742C30.4804 64.742 29.827 64.8727 29.0617 65.134L28.6417 63.916C29.5657 63.5613 30.4617 63.384 31.3297 63.384C33.2244 63.384 34.1717 64.2333 34.1717 65.932V69.04ZM30.9797 69.908C31.5864 69.908 32.0624 69.6047 32.4077 68.998V67.5H31.6657C30.5084 67.5 29.9297 67.9293 29.9297 68.788C29.9297 69.1427 30.0184 69.418 30.1957 69.614C30.373 69.81 30.6344 69.908 30.9797 69.908ZM42.6452 63.594L40.2372 71H38.0952L35.6452 63.594H37.5912L39.1732 69.558L40.7972 63.594H42.6452ZM50.3038 67.122C50.3038 67.2153 50.2898 67.458 50.2618 67.85H45.6138C45.6698 68.5687 45.8565 69.082 46.1738 69.39C46.4912 69.698 46.9112 69.852 47.4338 69.852C47.7605 69.852 48.0685 69.8007 48.3578 69.698C48.6472 69.586 48.9552 69.418 49.2818 69.194L50.0238 70.216C49.2025 70.8787 48.2878 71.21 47.2798 71.21C46.1505 71.21 45.2778 70.8647 44.6618 70.174C44.0552 69.4833 43.7518 68.5407 43.7518 67.346C43.7518 66.59 43.8825 65.9133 44.1438 65.316C44.4052 64.7093 44.7832 64.238 45.2778 63.902C45.7725 63.5567 46.3605 63.384 47.0418 63.384C48.0778 63.384 48.8805 63.7153 49.4498 64.378C50.0192 65.0313 50.3038 65.946 50.3038 67.122ZM48.5258 66.604C48.5258 65.3067 48.0452 64.658 47.0838 64.658C46.6452 64.658 46.2998 64.8213 46.0478 65.148C45.8052 65.4653 45.6605 65.9787 45.6138 66.688H48.5258V66.604ZM58.7014 60.626V71H57.1194L56.9934 70.062C56.7601 70.4167 56.4614 70.6967 56.0974 70.902C55.7428 71.1073 55.3368 71.21 54.8794 71.21C53.9741 71.21 53.2788 70.86 52.7934 70.16C52.3081 69.46 52.0654 68.508 52.0654 67.304C52.0654 66.548 52.1868 65.876 52.4294 65.288C52.6721 64.6907 53.0174 64.224 53.4654 63.888C53.9228 63.552 54.4501 63.384 55.0474 63.384C55.7568 63.384 56.3774 63.65 56.9094 64.182V60.43L58.7014 60.626ZM55.3834 69.852C55.7008 69.852 55.9808 69.7773 56.2234 69.628C56.4661 69.4693 56.6948 69.2267 56.9094 68.9V65.512C56.6948 65.2507 56.4754 65.0547 56.2514 64.924C56.0368 64.7933 55.7848 64.728 55.4954 64.728C55.0194 64.728 54.6414 64.9427 54.3614 65.372C54.0908 65.792 53.9554 66.4313 53.9554 67.29C53.9554 68.2047 54.0768 68.8627 54.3194 69.264C54.5621 69.656 54.9168 69.852 55.3834 69.852Z" fill="#FBFAF1"/>
<path d="M52.7404 30.2344L46.1866 34.9959L48.6902 42.7003C48.8257 43.1175 48.6768 43.5742 48.3226 43.8324C48.1446 43.9612 47.9363 44.0255 47.7271 44.0255C47.5182 44.0255 47.3093 43.9611 47.1325 43.8324L40.5791 39.0706L34.0259 43.8317C33.6704 44.0899 33.1901 44.0899 32.8353 43.8317C32.4814 43.5742 32.3323 43.1174 32.468 42.7003L34.9709 34.9955L28.4178 30.2344C28.063 29.9766 27.914 29.52 28.0496 29.1027C28.1856 28.6855 28.5747 28.4032 29.0129 28.4032H37.1132L39.6162 20.6993C39.7518 20.2822 40.1407 20 40.5795 20C41.0182 20 41.4064 20.2822 41.5419 20.6993L44.0448 28.4032H52.1459C52.5839 28.4032 52.9728 28.6856 53.109 29.1027C53.2434 29.52 53.0942 29.9766 52.7404 30.2344Z" fill="#FBFAF1"/>
</svg>
