<svg width="92" height="95" viewBox="0 0 92 95" fill="none" xmlns="http://www.w3.org/2000/svg">
<g filter="url(#filter0_d)">
<path d="M6 22C6 10.9543 14.9543 2 26 2H78C82.4183 2 86 5.58172 86 10V65C86 76.0457 77.0457 85 66 85H14C9.58172 85 6 81.4183 6 77V22Z" fill="#A0CFCB"/>
<path d="M25.6391 63.116C26.3205 63.116 26.9131 63.214 27.4171 63.41C27.9211 63.606 28.3925 63.9047 28.8311 64.306L27.9211 65.356C27.5758 65.0667 27.2258 64.8567 26.8711 64.726C26.5258 64.5953 26.1525 64.53 25.7511 64.53C25.3031 64.53 24.9391 64.6327 24.6591 64.838C24.3885 65.034 24.2531 65.314 24.2531 65.678C24.2531 65.9207 24.3045 66.1213 24.4071 66.28C24.5191 66.4387 24.7151 66.588 24.9951 66.728C25.2751 66.868 25.6905 67.022 26.2411 67.19C27.1931 67.4887 27.9071 67.862 28.3831 68.31C28.8685 68.7487 29.1111 69.3927 29.1111 70.242C29.1111 70.8207 28.9618 71.334 28.6631 71.782C28.3738 72.23 27.9538 72.58 27.4031 72.832C26.8525 73.084 26.1991 73.21 25.4431 73.21C24.7058 73.21 24.0431 73.0933 23.4551 72.86C22.8765 72.6173 22.3771 72.2907 21.9571 71.88L22.9091 70.816C23.2825 71.1333 23.6698 71.376 24.0711 71.544C24.4725 71.7027 24.9158 71.782 25.4011 71.782C25.9331 71.782 26.3625 71.656 26.6891 71.404C27.0158 71.152 27.1791 70.7973 27.1791 70.34C27.1791 70.06 27.1231 69.8313 27.0111 69.654C26.8991 69.4673 26.7078 69.304 26.4371 69.164C26.1665 69.0147 25.7745 68.8607 25.2611 68.702C24.2345 68.3847 23.4925 68.002 23.0351 67.554C22.5778 67.106 22.3491 66.518 22.3491 65.79C22.3491 65.258 22.4891 64.7913 22.7691 64.39C23.0491 63.9887 23.4365 63.676 23.9311 63.452C24.4351 63.228 25.0045 63.116 25.6391 63.116ZM35.1391 65.384C35.7925 65.384 36.3058 65.5847 36.6791 65.986C37.0525 66.3873 37.2391 66.938 37.2391 67.638V73H35.4471V67.918C35.4471 67.4793 35.3678 67.1713 35.2091 66.994C35.0598 66.8167 34.8358 66.728 34.5371 66.728C34.2385 66.728 33.9631 66.826 33.7111 67.022C33.4591 67.2087 33.2165 67.4793 32.9831 67.834V73H31.1911V62.64L32.9831 62.458V66.476C33.5805 65.748 34.2991 65.384 35.1391 65.384ZM45.3599 71.04C45.3599 71.3293 45.4019 71.544 45.4859 71.684C45.5792 71.8147 45.7239 71.9173 45.9199 71.992L45.5419 73.182C45.1219 73.1447 44.7766 73.042 44.5059 72.874C44.2446 72.706 44.0439 72.4493 43.9039 72.104C43.6519 72.4773 43.3346 72.7573 42.9519 72.944C42.5786 73.1213 42.1586 73.21 41.6919 73.21C40.9546 73.21 40.3712 73 39.9419 72.58C39.5126 72.16 39.2979 71.6093 39.2979 70.928C39.2979 70.1253 39.5872 69.514 40.1659 69.094C40.7539 68.6647 41.5892 68.45 42.6719 68.45H43.5959V68.03C43.5959 67.554 43.4839 67.2227 43.2599 67.036C43.0452 66.84 42.6952 66.742 42.2099 66.742C41.6686 66.742 41.0152 66.8727 40.2499 67.134L39.8299 65.916C40.7539 65.5613 41.6499 65.384 42.5179 65.384C44.4126 65.384 45.3599 66.2333 45.3599 67.932V71.04ZM42.1679 71.908C42.7746 71.908 43.2506 71.6047 43.5959 70.998V69.5H42.8539C41.6966 69.5 41.1179 69.9293 41.1179 70.788C41.1179 71.1427 41.2066 71.418 41.3839 71.614C41.5612 71.81 41.8226 71.908 42.1679 71.908ZM51.7425 65.398C52.0131 65.398 52.2605 65.4307 52.4845 65.496L52.1765 67.232C51.9525 67.176 51.7331 67.148 51.5185 67.148C51.0798 67.148 50.7345 67.3067 50.4825 67.624C50.2305 67.932 50.0298 68.408 49.8805 69.052V73H48.0885V65.594H49.6425L49.8105 67.05C49.9878 66.518 50.2445 66.112 50.5805 65.832C50.9165 65.5427 51.3038 65.398 51.7425 65.398ZM59.8104 69.122C59.8104 69.2153 59.7964 69.458 59.7684 69.85H55.1204C55.1764 70.5687 55.3631 71.082 55.6804 71.39C55.9977 71.698 56.4177 71.852 56.9404 71.852C57.2671 71.852 57.5751 71.8007 57.8644 71.698C58.1537 71.586 58.4617 71.418 58.7884 71.194L59.5304 72.216C58.7091 72.8787 57.7944 73.21 56.7864 73.21C55.6571 73.21 54.7844 72.8647 54.1684 72.174C53.5617 71.4833 53.2584 70.5407 53.2584 69.346C53.2584 68.59 53.3891 67.9133 53.6504 67.316C53.9117 66.7093 54.2897 66.238 54.7844 65.902C55.2791 65.5567 55.8671 65.384 56.5484 65.384C57.5844 65.384 58.3871 65.7153 58.9564 66.378C59.5257 67.0313 59.8104 67.946 59.8104 69.122ZM58.0324 68.604C58.0324 67.3067 57.5517 66.658 56.5904 66.658C56.1517 66.658 55.8064 66.8213 55.5544 67.148C55.3117 67.4653 55.1671 67.9787 55.1204 68.688H58.0324V68.604ZM68.208 62.626V73H66.626L66.5 72.062C66.2667 72.4167 65.968 72.6967 65.604 72.902C65.2493 73.1073 64.8433 73.21 64.386 73.21C63.4807 73.21 62.7853 72.86 62.3 72.16C61.8147 71.46 61.572 70.508 61.572 69.304C61.572 68.548 61.6933 67.876 61.936 67.288C62.1787 66.6907 62.524 66.224 62.972 65.888C63.4293 65.552 63.9567 65.384 64.554 65.384C65.2633 65.384 65.884 65.65 66.416 66.182V62.43L68.208 62.626ZM64.89 71.852C65.2073 71.852 65.4873 71.7773 65.73 71.628C65.9727 71.4693 66.2013 71.2267 66.416 70.9V67.512C66.2013 67.2507 65.982 67.0547 65.758 66.924C65.5433 66.7933 65.2913 66.728 65.002 66.728C64.526 66.728 64.148 66.9427 63.868 67.372C63.5973 67.792 63.462 68.4313 63.462 69.29C63.462 70.2047 63.5833 70.8627 63.826 71.264C64.0687 71.656 64.4233 71.852 64.89 71.852Z" fill="#FBFAF1"/>
</g>
<path d="M53.3522 40.1782C52.3717 40.1782 51.488 40.5588 50.8171 41.1716L41.6248 35.811C41.6957 35.5208 41.7409 35.2176 41.7409 34.9079C41.7409 34.5983 41.6957 34.2951 41.6248 34.0048L50.7203 28.6959C51.4106 29.3409 52.333 29.7409 53.3522 29.7409C55.4874 29.7409 57.2227 28.0056 57.2227 25.8704C57.2227 23.7352 55.4874 22 53.3522 22C51.217 22 49.4818 23.7352 49.4818 25.8704C49.4818 26.1801 49.5269 26.4833 49.5979 26.7735L40.5023 32.0825C39.8121 31.4374 38.8897 31.0375 37.8704 31.0375C35.7352 31.0375 34 32.7727 34 34.9079C34 37.0431 35.7352 38.7784 37.8704 38.7784C38.8897 38.7784 39.8121 38.3784 40.5023 37.7334L49.6947 43.0939C49.6301 43.3649 49.5914 43.6487 49.5914 43.939C49.5914 46.0161 51.2751 47.6998 53.3522 47.6998C55.4294 47.6998 57.113 46.0161 57.113 43.939C57.113 41.8618 55.4294 40.1782 53.3522 40.1782V40.1782Z" fill="#FBFAF1"/>
<defs>
<filter id="filter0_d" x="0" y="0" width="92" height="95" filterUnits="userSpaceOnUse" color-interpolation-filters="sRGB">
<feFlood flood-opacity="0" result="BackgroundImageFix"/>
<feColorMatrix in="SourceAlpha" type="matrix" values="0 0 0 0 0 0 0 0 0 0 0 0 0 0 0 0 0 0 127 0"/>
<feOffset dy="4"/>
<feGaussianBlur stdDeviation="3"/>
<feColorMatrix type="matrix" values="0 0 0 0 0 0 0 0 0 0 0 0 0 0 0 0 0 0 0.05 0"/>
<feBlend mode="normal" in2="BackgroundImageFix" result="effect1_dropShadow"/>
<feBlend mode="normal" in="SourceGraphic" in2="effect1_dropShadow" result="shape"/>
</filter>
</defs>
</svg>
