<svg width="92" height="95" viewBox="0 0 92 95" fill="none" xmlns="http://www.w3.org/2000/svg">
<g filter="url(#filter0_d)">
<path d="M6 22C6 10.9543 14.9543 2 26 2H78C82.4183 2 86 5.58172 86 10V65C86 76.0457 77.0457 85 66 85H14C9.58172 85 6 81.4183 6 77V22Z" fill="#A0CFCB"/>
<path d="M54.025 31.5573C52.165 31.5573 50.4083 32.2806 49.149 33.54L45.5 36.7691L45.4935 36.7627L43.5367 38.487L43.5496 38.5L40.0685 41.587C39.2419 42.4073 38.144 42.8593 36.975 42.8593C34.5596 42.8593 32.5962 40.9025 32.5962 38.5C32.5962 36.0975 34.5596 34.1406 36.975 34.1406C38.144 34.1406 39.2419 34.5927 40.1267 35.471L41.5927 36.7691L43.5431 35.0448L41.9092 33.5981C40.5917 32.287 38.8415 31.5637 36.975 31.5637C33.1258 31.5573 30 34.6702 30 38.5C30 42.3298 33.1258 45.4427 36.975 45.4427C38.835 45.4427 40.5852 44.7193 41.851 43.4664L45.5 40.2308L45.5065 40.2373L47.4569 38.5064L47.4504 38.5L50.9315 35.4193C51.7581 34.5927 52.856 34.1406 54.025 34.1406C56.4404 34.1406 58.4037 36.0975 58.4037 38.5C58.4037 40.9025 56.4404 42.8593 54.025 42.8593C52.856 42.8593 51.7581 42.4073 50.8733 41.5354L49.4073 40.2373L47.4569 41.9681L49.0908 43.4148C50.4083 44.7258 52.1585 45.4427 54.0185 45.4427C57.8742 45.4427 61 42.3298 61 38.5C61 34.6702 57.8742 31.5573 54.025 31.5573Z" fill="#FBFAF1"/>
<path d="M30.7182 63.116C31.3996 63.116 31.9922 63.214 32.4962 63.41C33.0002 63.606 33.4716 63.9047 33.9102 64.306L33.0002 65.356C32.6549 65.0667 32.3049 64.8567 31.9502 64.726C31.6049 64.5953 31.2316 64.53 30.8302 64.53C30.3822 64.53 30.0182 64.6327 29.7382 64.838C29.4676 65.034 29.3322 65.314 29.3322 65.678C29.3322 65.9207 29.3836 66.1213 29.4862 66.28C29.5982 66.4387 29.7942 66.588 30.0742 66.728C30.3542 66.868 30.7696 67.022 31.3202 67.19C32.2722 67.4887 32.9862 67.862 33.4622 68.31C33.9476 68.7487 34.1902 69.3927 34.1902 70.242C34.1902 70.8207 34.0409 71.334 33.7422 71.782C33.4529 72.23 33.0329 72.58 32.4822 72.832C31.9316 73.084 31.2782 73.21 30.5222 73.21C29.7849 73.21 29.1222 73.0933 28.5342 72.86C27.9556 72.6173 27.4562 72.2907 27.0362 71.88L27.9882 70.816C28.3616 71.1333 28.7489 71.376 29.1502 71.544C29.5516 71.7027 29.9949 71.782 30.4802 71.782C31.0122 71.782 31.4416 71.656 31.7682 71.404C32.0949 71.152 32.2582 70.7973 32.2582 70.34C32.2582 70.06 32.2022 69.8313 32.0902 69.654C31.9782 69.4673 31.7869 69.304 31.5162 69.164C31.2456 69.0147 30.8536 68.8607 30.3402 68.702C29.3136 68.3847 28.5716 68.002 28.1142 67.554C27.6569 67.106 27.4282 66.518 27.4282 65.79C27.4282 65.258 27.5682 64.7913 27.8482 64.39C28.1282 63.9887 28.5156 63.676 29.0102 63.452C29.5142 63.228 30.0836 63.116 30.7182 63.116ZM40.5122 72.65C40.2509 72.8367 39.9569 72.9767 39.6302 73.07C39.3129 73.1633 38.9862 73.21 38.6502 73.21C37.9222 73.2007 37.3669 72.9953 36.9842 72.594C36.6109 72.1833 36.4242 71.5813 36.4242 70.788V66.882H35.2622V65.594H36.4242V63.956L38.2162 63.746V65.594H39.9382L39.7562 66.882H38.2162V70.746C38.2162 71.11 38.2769 71.3713 38.3982 71.53C38.5289 71.6887 38.7296 71.768 39.0002 71.768C39.2709 71.768 39.5649 71.6793 39.8822 71.502L40.5122 72.65ZM45.7342 65.398C46.0049 65.398 46.2522 65.4307 46.4762 65.496L46.1682 67.232C45.9442 67.176 45.7249 67.148 45.5102 67.148C45.0716 67.148 44.7262 67.3067 44.4742 67.624C44.2222 67.932 44.0216 68.408 43.8722 69.052V73H42.0802V65.594H43.6342L43.8022 67.05C43.9796 66.518 44.2362 66.112 44.5722 65.832C44.9082 65.5427 45.2956 65.398 45.7342 65.398ZM50.7502 65.384C51.8422 65.384 52.6915 65.734 53.2982 66.434C53.9142 67.1247 54.2222 68.0767 54.2222 69.29C54.2222 70.0647 54.0822 70.7507 53.8022 71.348C53.5222 71.936 53.1208 72.3933 52.5982 72.72C52.0755 73.0467 51.4548 73.21 50.7362 73.21C49.6442 73.21 48.7902 72.8647 48.1742 72.174C47.5582 71.474 47.2502 70.5127 47.2502 69.29C47.2502 68.5153 47.3902 67.834 47.6702 67.246C47.9502 66.658 48.3515 66.2007 48.8742 65.874C49.4062 65.5473 50.0315 65.384 50.7502 65.384ZM50.7502 66.742C49.6768 66.742 49.1402 67.5913 49.1402 69.29C49.1402 70.1673 49.2708 70.816 49.5322 71.236C49.8028 71.6467 50.2042 71.852 50.7362 71.852C51.2682 71.852 51.6648 71.642 51.9262 71.222C52.1968 70.802 52.3322 70.158 52.3322 69.29C52.3322 68.422 52.1968 67.7827 51.9262 67.372C51.6648 66.952 51.2728 66.742 50.7502 66.742ZM58.2119 73.21C57.6426 73.21 57.1946 73.0467 56.8679 72.72C56.5506 72.384 56.3919 71.9127 56.3919 71.306V62.626L58.1839 62.43V71.25C58.1839 71.5953 58.3239 71.768 58.6039 71.768C58.7439 71.768 58.8839 71.7447 59.0239 71.698L59.4019 72.958C59.0286 73.126 58.6319 73.21 58.2119 73.21ZM62.9009 73.21C62.3315 73.21 61.8835 73.0467 61.5569 72.72C61.2395 72.384 61.0809 71.9127 61.0809 71.306V62.626L62.8729 62.43V71.25C62.8729 71.5953 63.0129 71.768 63.2929 71.768C63.4329 71.768 63.5729 71.7447 63.7129 71.698L64.0909 72.958C63.7175 73.126 63.3209 73.21 62.9009 73.21Z" fill="#FBFAF1"/>
</g>
<defs>
<filter id="filter0_d" x="0" y="0" width="92" height="95" filterUnits="userSpaceOnUse" color-interpolation-filters="sRGB">
<feFlood flood-opacity="0" result="BackgroundImageFix"/>
<feColorMatrix in="SourceAlpha" type="matrix" values="0 0 0 0 0 0 0 0 0 0 0 0 0 0 0 0 0 0 127 0"/>
<feOffset dy="4"/>
<feGaussianBlur stdDeviation="3"/>
<feColorMatrix type="matrix" values="0 0 0 0 0 0 0 0 0 0 0 0 0 0 0 0 0 0 0.05 0"/>
<feBlend mode="normal" in2="BackgroundImageFix" result="effect1_dropShadow"/>
<feBlend mode="normal" in="SourceGraphic" in2="effect1_dropShadow" result="shape"/>
</filter>
</defs>
</svg>
